<svg width="24" height="28" viewBox="0 0 24 28" fill="none" xmlns="http://www.w3.org/2000/svg">
<path fill-rule="evenodd" clip-rule="evenodd" d="M1 14C1 7.92487 5.92487 3 12 3C18.0751 3 23 7.92487 23 14C23 20.0751 18.0751 25 12 25C5.92487 25 1 20.0751 1 14Z" fill="#93CF39"/>
<path fill-rule="evenodd" clip-rule="evenodd" d="M17.3106 10.043C17.7012 10.4335 17.7012 11.0667 17.3106 11.4572L11.1035 17.9572C10.713 18.3477 10.0798 18.3477 9.68932 17.9572L6.68932 14.9572C6.29879 14.5667 6.29879 13.9335 6.68932 13.543C7.07984 13.1524 7.71301 13.1524 8.10353 13.543L10.3964 15.8359L15.8964 10.043C16.2869 9.65244 16.9201 9.65244 17.3106 10.043Z" fill="white"/>
</svg>
