<svg width="77" height="77" viewBox="0 0 77 77" fill="none" xmlns="http://www.w3.org/2000/svg">
<circle cx="38.5" cy="38.5" r="38.5" fill="#93CF39"/>
<path d="M49.6562 43.1094L48.6719 42.8281C48.1938 42.7076 47.7241 42.5563 47.2656 42.375C46.7983 42.2075 46.3957 41.8968 46.1152 41.4873C45.8346 41.0777 45.6905 40.59 45.7031 40.0938C50.1406 35.4063 50.0781 31.2344 49.9844 26.8594C49.9844 26.2656 49.9844 25.6719 49.9844 25.0625C49.944 22.1743 48.7787 19.4157 46.7362 17.3732C44.6937 15.3307 41.9351 14.1654 39.0469 14.125C36.1505 14.1533 33.38 15.3132 31.3275 17.357C29.275 19.4008 28.1032 22.1663 28.0625 25.0625C28.0625 25.6719 28.0625 26.2656 28.0625 26.8594C27.9688 31.2344 27.9062 35.375 32.3437 40.0938C32.3518 40.6058 32.1951 41.1068 31.897 41.5231C31.5988 41.9394 31.1748 42.249 30.6875 42.4063C30.25 42.5781 29.7812 42.7031 29.3437 42.8281L28.3594 43.1094C22.7656 44.9687 17.125 50.0625 17.125 56.3125C17.125 56.7269 17.2896 57.1243 17.5826 57.4174C17.8757 57.7104 18.2731 57.875 18.6875 57.875C19.1019 57.875 19.4993 57.7104 19.7924 57.4174C20.0854 57.1243 20.25 56.7269 20.25 56.3125C20.25 51.625 24.9375 47.5469 29.3437 46.0781C29.5937 45.9844 29.8594 45.9219 30.1563 45.8437C30.7274 45.7205 31.2909 45.564 31.8438 45.375C32.5584 45.1089 33.2074 44.6921 33.7466 44.1529C34.2859 43.6137 34.7027 42.9647 34.9688 42.25C35.3872 42.4592 35.8207 42.6368 36.2656 42.7813L34.7031 44.3438C34.4712 44.5776 34.3191 44.8789 34.2686 45.2044C34.2181 45.5299 34.2717 45.8631 34.4219 46.1562L35.875 48.7187L34.3125 56C34.2296 56.4144 34.3148 56.8448 34.5492 57.1964C34.7836 57.548 35.1481 57.7921 35.5625 57.875C35.9769 57.9579 36.4073 57.8727 36.7589 57.6383C37.1105 57.4039 37.3546 57.0394 37.4375 56.625L39 48.8125C39.0077 48.7085 39.0077 48.604 39 48.5C38.9923 48.604 38.9923 48.7085 39 48.8125L40.5625 56.625C40.6355 56.9832 40.8319 57.3045 41.1174 57.5329C41.4029 57.7613 41.7595 57.8824 42.125 57.875H42.4375C42.6447 57.8379 42.8422 57.7593 43.0182 57.6439C43.1942 57.5286 43.3451 57.3788 43.4619 57.2037C43.5786 57.0286 43.6588 56.8317 43.6975 56.6249C43.7363 56.418 43.7329 56.2055 43.6875 56L42.2344 48.7187L43.5469 46.0781C43.697 45.7849 43.7507 45.4518 43.7002 45.1263C43.6497 44.8007 43.4976 44.4995 43.2656 44.2656L41.7031 42.7031C42.1559 42.56 42.5952 42.377 43.0156 42.1563C43.2835 42.8699 43.7009 43.5179 44.2399 44.0569C44.7789 44.5959 45.427 45.0134 46.1406 45.2813C46.7265 45.5167 47.3267 45.715 47.9375 45.875C48.2187 45.9531 48.5 46.0156 48.75 46.1094C53.0625 47.5469 57.75 51.625 57.75 56.3125C57.75 56.7269 57.9146 57.1243 58.2076 57.4174C58.5007 57.7104 58.8981 57.875 59.3125 57.875C59.7269 57.875 60.1243 57.7104 60.4174 57.4174C60.7104 57.1243 60.875 56.7269 60.875 56.3125C60.875 50.0625 55.2344 44.9687 49.6562 43.1094ZM31.1875 26.9063C31.1875 26.3125 31.1875 25.6875 31.1875 25.0625C31.1875 22.9905 32.0106 21.0034 33.4757 19.5382C34.9409 18.0731 36.928 17.25 39 17.25C41.072 17.25 43.0591 18.0731 44.5243 19.5382C45.9894 21.0034 46.8125 22.9905 46.8125 25.0625C46.8125 25.6875 46.8125 26.3125 46.8125 26.9063C46.8125 31.0938 46.9531 34.4063 42.9531 38.4063C42.4332 38.9297 41.8149 39.3451 41.1338 39.6286C40.4526 39.9121 39.7221 40.058 38.9844 40.058C38.2466 40.058 37.5161 39.9121 36.835 39.6286C36.1539 39.3451 35.5355 38.9297 35.0156 38.4063C31.0312 34.4375 31.0938 31.0938 31.1875 26.9063ZM39.1875 47.7969C39.0705 48.0132 39.0063 48.2541 39 48.5C38.9985 48.2554 38.9397 48.0146 38.8281 47.7969L37.7813 45.6875L39 44.4531L40.2188 45.6875L39.1875 47.7969Z" fill="white"/>
</svg>
